<?xml version="1.0" standalone="no"?>
<!DOCTYPE svg PUBLIC "-//W3C//DTD SVG 20010904//EN"
 "http://www.w3.org/TR/2001/REC-SVG-20010904/DTD/svg10.dtd">
<svg version="1.0" xmlns="http://www.w3.org/2000/svg"
 width="764.000000pt" height="247.000000pt" viewBox="0 0 764.000000 247.000000"
 preserveAspectRatio="xMidYMid meet">

<g transform="translate(0.000000,247.000000) scale(0.100000,-0.100000)"
fill="#000000" stroke="none">
<path d="M2582 2237 c-14 -17 -19 -954 -5 -968 6 -6 30 -9 54 -7 l44 3 5 140
6 140 5 -135 c2 -74 6 75 7 331 l2 466 -23 21 c-26 24 -78 29 -95 9z m105
-369 c-1 -46 -3 -9 -3 82 0 91 2 128 3 83 2 -46 2 -120 0 -165z m0 -110 c-3
-8 -6 -5 -6 6 -1 11 2 17 5 13 3 -3 4 -12 1 -19z"/>
<path d="M2907 2203 c-5 -33 -4 -582 1 -845 l2 -88 60 0 60 0 0 475 c0 459 -1
475 -19 485 -11 5 -38 10 -59 10 -39 0 -40 -1 -45 -37z"/>
<path d="M145 1753 c-5 -296 -4 -462 2 -472 8 -12 28 -16 84 -16 l74 0 8 450
c6 307 5 457 -2 472 -10 21 -17 23 -85 23 l-74 0 -7 -457z"/>
<path d="M3225 2185 c-35 -34 -33 -78 4 -116 60 -59 151 -27 151 53 0 75 -102
117 -155 63z"/>
<path d="M7265 2146 c-17 -7 -43 -28 -58 -45 -27 -32 -30 -45 -31 -127 -1 -40
-4 -43 -126 -145 -69 -57 -133 -110 -143 -118 -15 -12 -21 -9 -52 18 -41 35
-73 46 -116 37 -76 -15 -137 -101 -124 -176 6 -37 5 -39 -64 -97 -38 -32 -99
-76 -135 -97 -37 -21 -66 -41 -66 -43 0 -2 7 -17 15 -33 14 -27 17 -29 43 -17
60 26 141 79 208 135 66 56 72 59 95 46 75 -41 197 20 199 101 1 23 306 293
324 286 6 -3 35 -7 64 -9 45 -3 58 0 87 23 85 64 94 189 18 243 -39 28 -100
36 -138 18z"/>
<path d="M1433 2123 l-62 -4 -3 -92 -3 -92 -52 -3 c-58 -3 -61 -9 -47 -81 6
-30 9 -31 54 -31 34 0 50 -4 54 -16 3 -9 6 -98 6 -198 0 -110 5 -197 11 -217
39 -116 169 -172 283 -123 23 10 42 19 44 20 2 1 -2 29 -8 62 l-12 61 -24 -16
c-33 -21 -103 -12 -126 17 -16 20 -18 46 -18 215 l0 193 88 0 87 0 -1 54 0 53
-82 3 -81 3 -3 97 c-3 110 6 101 -105 95z"/>
<path d="M5940 2123 c-24 -4 -25 -6 -25 -81 l0 -77 -42 -3 -43 -3 0 -65 0 -64
44 0 43 0 7 -46 c3 -26 6 -106 6 -178 0 -72 5 -149 11 -171 14 -49 51 -101 93
-126 44 -27 138 -26 191 2 63 33 68 40 60 93 -6 39 -10 46 -24 40 -9 -4 -43
-9 -77 -12 -58 -4 -61 -3 -87 28 -27 31 -27 32 -27 201 l0 169 34 0 c18 0 54
3 80 6 l46 7 0 58 0 59 -85 0 -85 0 0 85 0 85 -47 -1 c-27 -1 -59 -4 -73 -6z"/>
<path d="M5405 1971 c-44 -11 -87 -36 -114 -65 -14 -14 -33 -26 -44 -26 -16 0
-19 6 -15 40 l4 40 -68 0 -68 0 0 -340 0 -340 23 -5 c13 -4 46 -5 73 -3 l49 3
5 220 c5 185 9 225 24 252 27 50 65 71 137 78 54 5 69 3 97 -15 56 -35 61 -62
62 -308 l1 -220 31 -6 c17 -3 50 -6 73 -6 l43 0 7 46 c9 60 -4 437 -16 486
-13 51 -67 118 -116 146 -44 24 -139 36 -188 23z"/>
<path d="M817 1959 c-46 -11 -109 -42 -126 -63 -19 -23 -31 -20 -31 7 0 46
-20 58 -90 55 l-65 -3 -3 -337 -2 -337 54 -6 c98 -13 90 -29 97 215 3 118 10
226 16 240 38 87 175 125 272 76 56 -29 64 -67 69 -318 l5 -228 69 0 69 0 -3
258 c-3 246 -4 259 -27 304 -55 113 -176 167 -304 137z"/>
<path d="M3248 1959 c-17 -9 -18 -36 -18 -344 l0 -333 64 -4 64 -3 6 40 c6 48
-3 636 -10 647 -7 11 -86 9 -106 -3z"/>
<path d="M4523 1951 c-189 -65 -282 -300 -195 -493 56 -121 221 -210 362 -194
83 10 168 56 208 113 l33 48 -38 32 c-45 39 -54 40 -79 12 -55 -61 -174 -80
-251 -40 -42 21 -85 69 -97 107 -6 21 -6 21 250 20 l256 -1 -4 90 c-7 149 -62
239 -183 297 -50 23 -73 28 -135 28 -45 -1 -95 -8 -127 -19z m184 -112 c54
-20 113 -92 113 -139 0 -19 -5 -20 -147 -20 -82 0 -165 3 -185 6 -33 6 -38 10
-38 33 0 39 34 87 77 110 43 23 134 28 180 10z"/>
<path d="M1986 1940 c-54 -21 -106 -65 -141 -121 -64 -99 -74 -275 -21 -382
57 -118 202 -198 337 -185 64 6 164 57 213 107 l40 41 -30 31 c-51 54 -59 55
-111 10 -70 -62 -144 -76 -218 -42 -50 23 -83 58 -100 108 l-13 38 255 3 256
2 -7 55 c-17 146 -57 233 -134 292 -83 63 -227 82 -326 43z m234 -132 c32 -16
50 -34 63 -61 34 -72 33 -72 -157 -70 -92 1 -170 3 -172 5 -12 13 22 82 51
105 61 49 143 57 215 21z"/>
<path d="M3680 1934 c-63 -29 -133 -92 -160 -145 -46 -88 -42 -230 7 -322 33
-59 70 -92 143 -126 48 -23 68 -26 155 -26 83 0 107 4 144 23 25 12 47 20 49
17 3 -2 5 -31 6 -63 1 -72 -19 -107 -81 -134 -84 -37 -221 -19 -276 37 -18 17
-21 15 -88 -51 l-69 -68 48 -13 c137 -37 184 -45 262 -45 149 0 264 62 317
169 l28 58 3 352 3 351 -61 4 c-75 4 -80 2 -80 -28 0 -13 -1 -24 -2 -24 -2 0
-30 14 -62 30 -52 26 -69 30 -145 30 -71 0 -96 -5 -141 -26z m236 -109 c60
-30 100 -84 115 -155 31 -146 -41 -240 -183 -240 -139 1 -228 84 -228 214 0
95 54 162 160 199 35 13 89 5 136 -18z"/>
<path d="M3793 1823 c9 -2 23 -2 30 0 6 3 -1 5 -18 5 -16 0 -22 -2 -12 -5z"/>
<path d="M3858 1823 c6 -2 18 -2 25 0 6 3 1 5 -13 5 -14 0 -19 -2 -12 -5z"/>
<path d="M2757 1173 c-9 -8 -9 -390 0 -702 l6 -242 66 3 66 3 5 111 5 112 48
51 49 52 20 -23 c11 -13 70 -83 131 -156 l111 -133 80 7 c45 4 82 7 83 8 1 1
-48 65 -109 141 -61 77 -131 167 -155 199 l-44 59 116 112 c63 62 115 117 115
123 0 7 -11 12 -24 12 -13 0 -44 3 -69 6 l-46 7 -103 -99 c-146 -140 -195
-184 -206 -184 -5 0 -9 17 -9 38 1 20 0 133 -1 250 -2 197 -3 213 -22 232 -20
20 -98 29 -113 13z"/>
<path d="M322 1149 c-149 -48 -230 -198 -176 -327 34 -81 101 -125 258 -167
162 -43 196 -70 196 -159 0 -44 -4 -57 -27 -79 -58 -55 -139 -70 -238 -43 -54
14 -130 50 -156 73 -15 12 -20 9 -48 -37 -17 -28 -31 -54 -31 -59 0 -12 67
-64 102 -79 16 -6 28 -15 28 -20 0 -4 12 -9 28 -10 15 -1 43 -7 62 -14 56 -18
187 -15 245 7 175 66 243 221 165 375 -37 72 -99 115 -235 160 -131 44 -178
74 -191 123 -8 33 3 80 16 72 6 -3 10 0 10 8 0 17 38 53 47 44 3 -4 12 -2 20
5 8 6 43 11 79 10 53 0 77 -7 134 -36 79 -40 82 -39 104 45 17 65 13 71 -69
101 -88 31 -238 35 -323 7z"/>
<path d="M933 1083 c-22 -4 -23 -9 -23 -88 0 -90 -3 -95 -61 -95 -30 0 -30 0
-27 -52 l3 -53 37 -3 37 -3 3 -218 3 -218 29 -37 c16 -21 47 -47 70 -57 81
-37 207 -14 214 39 5 34 -20 84 -38 76 -41 -19 -77 -15 -106 9 l-29 25 2 187
c0 103 3 188 5 190 2 2 37 5 78 7 l75 3 3 58 3 57 -74 0 -74 0 -2 48 c-1 26
-4 60 -6 77 -2 16 1 35 7 42 8 10 -2 13 -48 12 -33 -1 -69 -4 -81 -6z"/>
<path d="M345 989 c-11 -16 -1 -19 13 -3 7 8 8 14 3 14 -5 0 -13 -5 -16 -11z"/>
<path d="M1516 914 c-124 -40 -198 -124 -226 -259 -24 -118 11 -238 95 -319
48 -47 132 -86 185 -86 16 0 31 -3 33 -7 3 -5 29 -6 59 -4 42 3 48 6 28 12
-22 6 -23 7 -4 8 81 4 202 102 246 200 74 161 3 358 -159 437 -69 34 -182 42
-257 18z m189 -124 c100 -49 147 -207 94 -318 -73 -150 -316 -130 -364 31 -37
126 5 250 100 293 45 20 122 17 170 -6z"/>
<path d="M2313 916 c-198 -65 -298 -304 -206 -492 72 -147 239 -213 395 -154
53 19 132 84 125 103 -1 4 -23 20 -48 34 l-46 25 -26 -24 c-117 -109 -299 3
-300 185 -1 178 160 262 309 161 l38 -26 37 43 38 44 -30 31 c-66 68 -195 100
-286 70z"/>
<path d="M3969 735 c-86 -157 -69 -159 -169 17 -56 99 -64 108 -91 108 l-29 0
2 -212 c3 -210 3 -211 26 -214 l22 -4 0 155 c0 85 3 155 8 155 4 0 36 -47 71
-105 35 -58 69 -105 75 -105 20 0 33 14 67 70 18 30 43 69 56 86 13 17 23 36
23 42 0 7 5 12 10 12 6 0 10 -58 10 -155 l0 -155 25 0 c25 0 25 2 25 78 0 42
3 141 7 220 l6 142 -35 0 c-36 0 -36 -1 -109 -135z"/>
<path d="M7199 843 c-1 -4 -2 -12 -4 -18 -1 -5 -3 -25 -3 -42 -2 -30 -5 -33
-32 -33 -23 0 -30 -4 -30 -20 0 -16 7 -20 30 -20 l30 0 0 -97 c0 -79 4 -104
19 -129 21 -35 66 -49 106 -34 38 15 32 40 -9 40 -53 0 -66 27 -66 132 l0 88
30 0 c23 0 30 5 30 19 0 15 -8 21 -32 23 -30 3 -32 5 -32 48 -1 34 -5 45 -18
48 -10 2 -19 0 -19 -5z"/>
<path d="M4981 759 c-50 -10 -71 -24 -71 -50 0 -23 7 -23 56 -3 71 30 154 -1
154 -56 0 -14 -13 -18 -78 -23 -82 -5 -135 -24 -146 -52 -15 -39 -6 -85 23
-117 25 -28 34 -32 79 -31 33 0 64 8 87 22 44 25 47 26 43 4 -3 -19 2 -23 27
-23 13 0 15 20 15 123 0 104 -3 127 -20 155 -29 47 -90 66 -169 51z m139 -207
c0 -64 -113 -109 -159 -63 -51 51 -11 91 91 91 68 0 68 0 68 -28z"/>
<path d="M4212 735 c-34 -28 -43 -65 -16 -65 9 0 29 11 46 25 32 27 58 31 107
14 31 -11 67 -61 57 -78 -3 -5 -45 -9 -93 -10 -55 -1 -96 -7 -109 -16 -46 -30
-34 -125 20 -160 34 -22 136 -17 164 9 19 16 20 16 25 -4 3 -12 13 -20 26 -20
20 0 21 5 21 125 l0 125 -34 37 c-32 36 -37 38 -108 41 -69 4 -76 2 -106 -23z
m198 -183 c0 -82 -156 -105 -176 -26 -10 40 15 54 103 54 l73 0 0 -28z"/>
<path d="M4560 597 l0 -164 30 -1 30 -1 0 105 c0 103 1 106 29 134 38 38 74
47 107 26 36 -24 44 -55 44 -167 l0 -100 28 3 27 3 -3 119 c-2 89 -7 126 -19
147 -18 29 -67 59 -99 59 -24 0 -104 -39 -104 -51 0 -6 -4 -8 -9 -4 -5 3 -8
17 -5 30 4 22 1 25 -26 25 l-30 0 0 -163z"/>
<path d="M5310 743 c-53 -28 -80 -75 -80 -142 0 -68 23 -111 73 -134 43 -21
113 -22 151 -2 15 8 31 15 33 15 3 0 3 -23 1 -52 -7 -70 -33 -92 -102 -85 -38
3 -55 11 -73 32 -13 15 -25 26 -27 24 -7 -8 -26 -48 -26 -54 0 -16 90 -45 143
-45 51 0 61 3 95 34 l37 34 3 191 4 191 -26 0 c-21 0 -26 -5 -26 -26 l0 -25
-35 26 c-45 35 -100 41 -145 18z m128 -61 c38 -36 57 -100 41 -136 -16 -34
-72 -60 -114 -52 -72 14 -111 114 -68 176 23 35 33 40 74 40 27 0 45 -8 67
-28z"/>
<path d="M5987 754 c-4 -4 -7 -74 -7 -156 l0 -148 25 0 c25 0 25 0 25 99 0 92
2 102 26 130 18 21 35 31 54 31 72 0 90 -34 90 -165 0 -88 1 -95 20 -95 19 0
20 7 20 90 0 124 25 170 94 170 43 0 57 -37 64 -155 5 -102 6 -105 28 -105 23
0 24 2 24 83 -1 151 -26 210 -96 223 -34 6 -65 -5 -102 -40 -21 -19 -25 -19
-35 -6 -41 54 -108 65 -156 25 l-30 -26 -3 23 c-3 23 -27 35 -41 22z"/>
<path d="M6570 742 c-42 -20 -80 -89 -80 -142 1 -85 66 -160 140 -160 79 0
167 75 119 101 -18 9 -25 6 -49 -22 -22 -27 -34 -33 -64 -32 -20 1 -44 7 -53
15 -14 11 -43 67 -43 83 0 3 52 5 116 5 l117 0 -6 35 c-9 53 -29 87 -66 112
-41 27 -83 29 -131 5z m93 -34 c28 -15 46 -38 47 -60 0 -16 -10 -18 -78 -18
-43 0 -81 3 -85 6 -12 12 19 57 48 70 38 17 41 17 68 2z"/>
<path d="M6926 745 c-16 -9 -35 -23 -42 -33 -12 -15 -13 -14 -14 11 0 22 -4
27 -25 27 l-25 0 0 -155 0 -155 23 4 c21 3 22 8 27 110 5 103 6 109 33 132 19
16 40 24 67 24 68 0 92 -41 100 -170 5 -95 5 -95 33 -98 26 -3 27 -2 27 50 0
80 -18 186 -36 213 -32 49 -113 68 -168 40z"/>
<path d="M5670 728 c-63 -44 -88 -134 -55 -197 40 -79 138 -110 219 -71 64 30
72 44 41 64 -25 17 -27 16 -46 -8 -17 -21 -29 -26 -66 -26 -38 0 -50 5 -79 34
-19 19 -34 38 -34 44 0 15 53 22 162 22 l100 0 -7 37 c-8 47 -38 89 -75 108
-44 23 -121 19 -160 -7z m151 -48 c17 -16 28 -34 24 -40 -3 -5 -46 -10 -96
-10 -101 0 -111 10 -58 54 43 37 91 35 130 -4z"/>
<path d="M1895 370 c-3 -5 -1 -10 4 -10 6 0 11 5 11 10 0 6 -2 10 -4 10 -3 0
-8 -4 -11 -10z"/>
<path d="M1846 320 c-48 -37 -52 -40 -39 -40 10 0 93 69 83 69 -3 0 -22 -13
-44 -29z"/>
<path d="M1758 263 c7 -3 16 -2 19 1 4 3 -2 6 -13 5 -11 0 -14 -3 -6 -6z"/>
</g>
</svg>
